<?xml version="1.0" encoding="UTF-8" standalone="no"?>
<!DOCTYPE svg PUBLIC "-//W3C//DTD SVG 1.1//EN"
 "http://www.w3.org/Graphics/SVG/1.1/DTD/svg11.dtd">
<!-- Generated by graphviz version 2.40.1 (20161225.0304)
 -->
<!-- Title: %3 Pages: 1 -->
<svg width="1596pt" height="44pt"
 viewBox="0.00 0.00 1596.00 44.00" xmlns="http://www.w3.org/2000/svg" xmlns:xlink="http://www.w3.org/1999/xlink">
<g id="graph0" class="graph" transform="scale(1 1) rotate(0) translate(4 40)">
<title>%3</title>
<polygon fill="#ffffff" stroke="transparent" points="-4,4 -4,-40 1592,-40 1592,4 -4,4"/>
<!-- Network Service Scanning -->
<g id="node1" class="node">
<title>Network Service Scanning</title>
<polygon fill="#a2e8e8" stroke="#000000" points="162,-36 0,-36 0,0 162,0 162,-36"/>
<text text-anchor="middle" x="81" y="-14.3" font-family="Times,serif" font-size="14.00" fill="#000000">Network Service Scanning</text>
</g>
<!-- Pre&#45;Attack -->
<g id="node2" class="node">
<title>Pre&#45;Attack</title>
<polygon fill="#eee9e9" stroke="#000000" points="415,-36 340,-36 340,0 415,0 415,-36"/>
<text text-anchor="middle" x="377.5" y="-14.3" font-family="Times,serif" font-size="14.00" fill="#000000">Pre&#45;Attack</text>
</g>
<!-- Network Service Scanning&#45;&gt;Pre&#45;Attack -->
<g id="edge1" class="edge">
<title>Network Service Scanning&#45;&gt;Pre&#45;Attack</title>
<path fill="none" stroke="#000000" d="M162.0199,-18C215.7858,-18 284.5193,-18 329.7193,-18"/>
<polygon fill="#000000" stroke="#000000" points="329.8353,-21.5001 339.8352,-18 329.8352,-14.5001 329.8353,-21.5001"/>
<text text-anchor="middle" x="251" y="-21.8" font-family="Times,serif" font-size="14.00" fill="#000000">2018&#45;11&#45;03 10:00:24 AM</text>
</g>
<!-- Account Manipulation -->
<g id="node3" class="node">
<title>Account Manipulation</title>
<polygon fill="#eee9e9" stroke="#000000" points="733,-36 593,-36 593,0 733,0 733,-36"/>
<text text-anchor="middle" x="663" y="-14.3" font-family="Times,serif" font-size="14.00" fill="#000000">Account Manipulation</text>
</g>
<!-- Pre&#45;Attack&#45;&gt;Account Manipulation -->
<g id="edge2" class="edge">
<title>Pre&#45;Attack&#45;&gt;Account Manipulation</title>
<path fill="none" stroke="#000000" d="M415.1177,-18C457.5962,-18 527.9448,-18 582.8688,-18"/>
<polygon fill="#000000" stroke="#000000" points="582.9347,-21.5001 592.9347,-18 582.9346,-14.5001 582.9347,-21.5001"/>
<text text-anchor="middle" x="504" y="-21.8" font-family="Times,serif" font-size="14.00" fill="#000000">2018&#45;11&#45;03 10:00:31 AM</text>
</g>
<!-- Exploitation of Remote Services / Execution for client exploitation -->
<g id="node4" class="node">
<title>Exploitation of Remote Services / Execution for client exploitation</title>
<polygon fill="#eee9e9" stroke="#000000" points="1293,-36 911,-36 911,0 1293,0 1293,-36"/>
<text text-anchor="middle" x="1102" y="-14.3" font-family="Times,serif" font-size="14.00" fill="#000000">Exploitation of Remote Services / Execution for client exploitation</text>
</g>
<!-- Account Manipulation&#45;&gt;Exploitation of Remote Services / Execution for client exploitation -->
<g id="edge3" class="edge">
<title>Account Manipulation&#45;&gt;Exploitation of Remote Services / Execution for client exploitation</title>
<path fill="none" stroke="#000000" d="M733.0463,-18C778.6786,-18 840.7223,-18 900.9074,-18"/>
<polygon fill="#000000" stroke="#000000" points="900.9385,-21.5001 910.9384,-18 900.9384,-14.5001 900.9385,-21.5001"/>
<text text-anchor="middle" x="822" y="-21.8" font-family="Times,serif" font-size="14.00" fill="#000000">2018&#45;11&#45;03 10:34:04 AM</text>
</g>
<!-- Remote File Copy -->
<g id="node5" class="node">
<title>Remote File Copy</title>
<polygon fill="#ff9e9e" stroke="#000000" points="1588,-36 1471,-36 1471,0 1588,0 1588,-36"/>
<text text-anchor="middle" x="1529.5" y="-14.3" font-family="Times,serif" font-size="14.00" fill="#000000">Remote File Copy</text>
</g>
<!-- Exploitation of Remote Services / Execution for client exploitation&#45;&gt;Remote File Copy -->
<g id="edge4" class="edge">
<title>Exploitation of Remote Services / Execution for client exploitation&#45;&gt;Remote File Copy</title>
<path fill="none" stroke="#000000" d="M1293.2432,-18C1352.9741,-18 1415.0756,-18 1460.6112,-18"/>
<polygon fill="#000000" stroke="#000000" points="1460.6503,-21.5001 1470.6503,-18 1460.6502,-14.5001 1460.6503,-21.5001"/>
<text text-anchor="middle" x="1382" y="-21.8" font-family="Times,serif" font-size="14.00" fill="#000000">2018&#45;11&#45;03 10:34:01 AM</text>
</g>
</g>
</svg>
