<?xml version="1.0" encoding="UTF-8" standalone="no"?>
<!DOCTYPE svg PUBLIC "-//W3C//DTD SVG 1.1//EN"
 "http://www.w3.org/Graphics/SVG/1.1/DTD/svg11.dtd">
<!-- Generated by graphviz version 2.40.1 (20161225.0304)
 -->
<!-- Title: %3 Pages: 1 -->
<svg width="795pt" height="44pt"
 viewBox="0.00 0.00 795.00 44.00" xmlns="http://www.w3.org/2000/svg" xmlns:xlink="http://www.w3.org/1999/xlink">
<g id="graph0" class="graph" transform="scale(1 1) rotate(0) translate(4 40)">
<title>%3</title>
<polygon fill="#ffffff" stroke="transparent" points="-4,4 -4,-40 791,-40 791,4 -4,4"/>
<!-- Network Service Scanning -->
<g id="node1" class="node">
<title>Network Service Scanning</title>
<polygon fill="#a2e8e8" stroke="#000000" points="162,-36 0,-36 0,0 162,0 162,-36"/>
<text text-anchor="middle" x="81" y="-14.3" font-family="Times,serif" font-size="14.00" fill="#000000">Network Service Scanning</text>
</g>
<!-- Pre&#45;Attack -->
<g id="node2" class="node">
<title>Pre&#45;Attack</title>
<polygon fill="#eee9e9" stroke="#000000" points="415,-36 340,-36 340,0 415,0 415,-36"/>
<text text-anchor="middle" x="377.5" y="-14.3" font-family="Times,serif" font-size="14.00" fill="#000000">Pre&#45;Attack</text>
</g>
<!-- Network Service Scanning&#45;&gt;Pre&#45;Attack -->
<g id="edge1" class="edge">
<title>Network Service Scanning&#45;&gt;Pre&#45;Attack</title>
<path fill="none" stroke="#000000" d="M162.0199,-18C215.7858,-18 284.5193,-18 329.7193,-18"/>
<polygon fill="#000000" stroke="#000000" points="329.8353,-21.5001 339.8352,-18 329.8352,-14.5001 329.8353,-21.5001"/>
<text text-anchor="middle" x="251" y="-21.8" font-family="Times,serif" font-size="14.00" fill="#000000">2018&#45;11&#45;03 07:08:23 AM</text>
</g>
<!-- Exploitation of Remote Services -->
<g id="node3" class="node">
<title>Exploitation of Remote Services</title>
<polygon fill="#ff9e9e" stroke="#000000" points="787,-36 593,-36 593,0 787,0 787,-36"/>
<text text-anchor="middle" x="690" y="-14.3" font-family="Times,serif" font-size="14.00" fill="#000000">Exploitation of Remote Services</text>
</g>
<!-- Pre&#45;Attack&#45;&gt;Exploitation of Remote Services -->
<g id="edge2" class="edge">
<title>Pre&#45;Attack&#45;&gt;Exploitation of Remote Services</title>
<path fill="none" stroke="#000000" d="M415.1948,-18C456.4661,-18 524.508,-18 582.5584,-18"/>
<polygon fill="#000000" stroke="#000000" points="582.8987,-21.5001 592.8986,-18 582.8986,-14.5001 582.8987,-21.5001"/>
<text text-anchor="middle" x="504" y="-21.8" font-family="Times,serif" font-size="14.00" fill="#000000">2018&#45;11&#45;03 08:05:46 AM</text>
</g>
</g>
</svg>
