<?xml version="1.0" encoding="UTF-8" standalone="no"?>
<!DOCTYPE svg PUBLIC "-//W3C//DTD SVG 1.1//EN"
 "http://www.w3.org/Graphics/SVG/1.1/DTD/svg11.dtd">
<!-- Generated by graphviz version 2.40.1 (20161225.0304)
 -->
<!-- Title: %3 Pages: 1 -->
<svg width="1598pt" height="77pt"
 viewBox="0.00 0.00 1598.00 77.00" xmlns="http://www.w3.org/2000/svg" xmlns:xlink="http://www.w3.org/1999/xlink">
<g id="graph0" class="graph" transform="scale(1 1) rotate(0) translate(4 73)">
<title>%3</title>
<polygon fill="#ffffff" stroke="transparent" points="-4,4 -4,-73 1594,-73 1594,4 -4,4"/>
<!-- Network Service Scanning -->
<g id="node1" class="node">
<title>Network Service Scanning</title>
<polygon fill="#a2e8e8" stroke="#000000" points="162,-45 0,-45 0,-9 162,-9 162,-45"/>
<text text-anchor="middle" x="81" y="-23.3" font-family="Times,serif" font-size="14.00" fill="#000000">Network Service Scanning</text>
</g>
<!-- Pre&#45;Attack -->
<g id="node2" class="node">
<title>Pre&#45;Attack</title>
<polygon fill="#eee9e9" stroke="#000000" points="1214,-45 1139,-45 1139,-9 1214,-9 1214,-45"/>
<text text-anchor="middle" x="1176.5" y="-23.3" font-family="Times,serif" font-size="14.00" fill="#000000">Pre&#45;Attack</text>
</g>
<!-- Network Service Scanning&#45;&gt;Pre&#45;Attack -->
<g id="edge1" class="edge">
<title>Network Service Scanning&#45;&gt;Pre&#45;Attack</title>
<path fill="none" stroke="#000000" d="M162.3008,-42.6032C172.8079,-44.6197 180,-46 180,-46 180,-46 337,-54 337,-54 337,-54 964,-54 964,-54 964,-54 1121,-46 1121,-46 1121,-46 1124.2701,-44.8805 1129.2228,-43.185"/>
<polygon fill="#000000" stroke="#000000" points="1130.5387,-46.434 1138.866,-39.8837 1128.2715,-39.8113 1130.5387,-46.434"/>
<text text-anchor="middle" x="602" y="-57.8" font-family="Times,serif" font-size="14.00" fill="#000000">2018&#45;11&#45;03 10:52:54 AM</text>
</g>
<!-- File and Directory Discovery -->
<g id="node3" class="node">
<title>File and Directory Discovery</title>
<polygon fill="#eee9e9" stroke="#000000" points="513,-45 337,-45 337,-9 513,-9 513,-45"/>
<text text-anchor="middle" x="425" y="-23.3" font-family="Times,serif" font-size="14.00" fill="#000000">File and Directory Discovery</text>
</g>
<!-- Network Service Scanning&#45;&gt;File and Directory Discovery -->
<g id="edge3" class="edge">
<title>Network Service Scanning&#45;&gt;File and Directory Discovery</title>
<path fill="none" stroke="#000000" d="M162.0876,-27C211.343,-27 274.557,-27 326.6555,-27"/>
<polygon fill="#000000" stroke="#000000" points="326.9197,-30.5001 336.9196,-27 326.9196,-23.5001 326.9197,-30.5001"/>
<text text-anchor="middle" x="249.5" y="-30.8" font-family="Times,serif" font-size="14.00" fill="#000000">2018&#45;11&#45;03 02:49:17 PM</text>
</g>
<!-- Pre&#45;Attack&#45;&gt;Network Service Scanning -->
<g id="edge2" class="edge">
<title>Pre&#45;Attack&#45;&gt;Network Service Scanning</title>
<path fill="none" stroke="#000000" d="M1138.9984,-22.2351C1077.9939,-14.4839 964,0 964,0 964,0 337,0 337,0 337,0 246.0674,-9.5905 172.5923,-17.3399"/>
<polygon fill="#000000" stroke="#000000" points="171.9295,-13.8903 162.3517,-18.4199 172.6637,-20.8517 171.9295,-13.8903"/>
<text text-anchor="middle" x="602" y="-3.8" font-family="Times,serif" font-size="14.00" fill="#000000">2018&#45;11&#45;03 05:16:22 PM</text>
</g>
<!-- Valid Accounts, Remote Services -->
<g id="node5" class="node">
<title>Valid Accounts, Remote Services</title>
<polygon fill="#ff9e9e" stroke="#000000" points="1590,-45 1389,-45 1389,-9 1590,-9 1590,-45"/>
<text text-anchor="middle" x="1489.5" y="-23.3" font-family="Times,serif" font-size="14.00" fill="#000000">Valid Accounts, Remote Services</text>
</g>
<!-- Pre&#45;Attack&#45;&gt;Valid Accounts, Remote Services -->
<g id="edge6" class="edge">
<title>Pre&#45;Attack&#45;&gt;Valid Accounts, Remote Services</title>
<path fill="none" stroke="#000000" d="M1214.2551,-27C1254.8255,-27 1321.2236,-27 1378.6402,-27"/>
<polygon fill="#000000" stroke="#000000" points="1378.8777,-30.5001 1388.8776,-27 1378.8776,-23.5001 1378.8777,-30.5001"/>
<text text-anchor="middle" x="1301.5" y="-30.8" font-family="Times,serif" font-size="14.00" fill="#000000">2018&#45;11&#45;03 04:17:25 PM</text>
</g>
<!-- Brute Force, Valid Accounts, Remote Services -->
<g id="node4" class="node">
<title>Brute Force, Valid Accounts, Remote Services</title>
<polygon fill="#eee9e9" stroke="#000000" points="964,-45 691,-45 691,-9 964,-9 964,-45"/>
<text text-anchor="middle" x="827.5" y="-23.3" font-family="Times,serif" font-size="14.00" fill="#000000">Brute Force, Valid Accounts, Remote Services</text>
</g>
<!-- File and Directory Discovery&#45;&gt;Brute Force, Valid Accounts, Remote Services -->
<g id="edge4" class="edge">
<title>File and Directory Discovery&#45;&gt;Brute Force, Valid Accounts, Remote Services</title>
<path fill="none" stroke="#000000" d="M513.3303,-27C562.3395,-27 624.5584,-27 680.6734,-27"/>
<polygon fill="#000000" stroke="#000000" points="680.7109,-30.5001 690.7108,-27 680.7108,-23.5001 680.7109,-30.5001"/>
<text text-anchor="middle" x="602" y="-30.8" font-family="Times,serif" font-size="14.00" fill="#000000">2018&#45;11&#45;03 01:47:32 PM</text>
</g>
<!-- Brute Force, Valid Accounts, Remote Services&#45;&gt;Pre&#45;Attack -->
<g id="edge5" class="edge">
<title>Brute Force, Valid Accounts, Remote Services&#45;&gt;Pre&#45;Attack</title>
<path fill="none" stroke="#000000" d="M964.1821,-27C1022.4333,-27 1086.5908,-27 1128.9684,-27"/>
<polygon fill="#000000" stroke="#000000" points="1128.9911,-30.5001 1138.9911,-27 1128.991,-23.5001 1128.9911,-30.5001"/>
<text text-anchor="middle" x="1051.5" y="-30.8" font-family="Times,serif" font-size="14.00" fill="#000000">2018&#45;11&#45;03 04:12:24 PM</text>
</g>
</g>
</svg>
