<?xml version="1.0" encoding="UTF-8" standalone="no"?>
<!DOCTYPE svg PUBLIC "-//W3C//DTD SVG 1.1//EN"
 "http://www.w3.org/Graphics/SVG/1.1/DTD/svg11.dtd">
<!-- Generated by graphviz version 2.40.1 (20161225.0304)
 -->
<!-- Title: %3 Pages: 1 -->
<svg width="868pt" height="44pt"
 viewBox="0.00 0.00 868.00 44.00" xmlns="http://www.w3.org/2000/svg" xmlns:xlink="http://www.w3.org/1999/xlink">
<g id="graph0" class="graph" transform="scale(1 1) rotate(0) translate(4 40)">
<title>%3</title>
<polygon fill="#ffffff" stroke="transparent" points="-4,4 -4,-40 864,-40 864,4 -4,4"/>
<!-- Network Service Scanning -->
<g id="node1" class="node">
<title>Network Service Scanning</title>
<polygon fill="#a2e8e8" stroke="#000000" points="162,-36 0,-36 0,0 162,0 162,-36"/>
<text text-anchor="middle" x="81" y="-14.3" font-family="Times,serif" font-size="14.00" fill="#000000">Network Service Scanning</text>
</g>
<!-- Pre&#45;Attack -->
<g id="node2" class="node">
<title>Pre&#45;Attack</title>
<polygon fill="#eee9e9" stroke="#000000" points="412,-36 337,-36 337,0 412,0 412,-36"/>
<text text-anchor="middle" x="374.5" y="-14.3" font-family="Times,serif" font-size="14.00" fill="#000000">Pre&#45;Attack</text>
</g>
<!-- Network Service Scanning&#45;&gt;Pre&#45;Attack -->
<g id="edge1" class="edge">
<title>Network Service Scanning&#45;&gt;Pre&#45;Attack</title>
<path fill="none" stroke="#000000" d="M162.3664,-18C215.1375,-18 282.0876,-18 326.5097,-18"/>
<polygon fill="#000000" stroke="#000000" points="326.7403,-21.5001 336.7402,-18 326.7402,-14.5001 326.7403,-21.5001"/>
<text text-anchor="middle" x="249.5" y="-21.8" font-family="Times,serif" font-size="14.00" fill="#000000">2018&#45;11&#45;03 05:47:53 PM</text>
</g>
<!-- Brute Force, Valid Accounts, Remote Services -->
<g id="node3" class="node">
<title>Brute Force, Valid Accounts, Remote Services</title>
<polygon fill="#ff9e9e" stroke="#000000" points="860,-36 587,-36 587,0 860,0 860,-36"/>
<text text-anchor="middle" x="723.5" y="-14.3" font-family="Times,serif" font-size="14.00" fill="#000000">Brute Force, Valid Accounts, Remote Services</text>
</g>
<!-- Pre&#45;Attack&#45;&gt;Brute Force, Valid Accounts, Remote Services -->
<g id="edge2" class="edge">
<title>Pre&#45;Attack&#45;&gt;Brute Force, Valid Accounts, Remote Services</title>
<path fill="none" stroke="#000000" d="M412.1807,-18C451.7508,-18 516.4753,-18 576.6868,-18"/>
<polygon fill="#000000" stroke="#000000" points="576.6957,-21.5001 586.6957,-18 576.6957,-14.5001 576.6957,-21.5001"/>
<text text-anchor="middle" x="499.5" y="-21.8" font-family="Times,serif" font-size="14.00" fill="#000000">2018&#45;11&#45;03 05:49:59 PM</text>
</g>
</g>
</svg>
